<mxfile host="app.diagrams.net" modified="2023-08-16T19:20:57.249Z" agent="Mozilla/5.0 (Macintosh; Intel Mac OS X 10_15_7) AppleWebKit/537.36 (KHTML, like Gecko) Chrome/115.0.0.0 Safari/537.36" etag="a9ktgRlCleXhnXtV9g1f" version="21.6.8" type="github">
  <diagram name="Page-1" id="Dkc9KShbpaWvhL2H0rqo">
    <mxGraphModel dx="857" dy="647" grid="1" gridSize="10" guides="1" tooltips="1" connect="1" arrows="1" fold="1" page="1" pageScale="1" pageWidth="850" pageHeight="1100" math="0" shadow="0">
      <root>
        <mxCell id="0" />
        <mxCell id="1" parent="0" />
        <mxCell id="MJouJ_tBEHJUPLvAa8a3-21" value="" style="endArrow=classic;startArrow=classic;html=1;rounded=0;dashed=1;dashPattern=12 12;strokeWidth=1;strokeColor=default;fontStyle=0;endFill=1;" edge="1" parent="1">
          <mxGeometry width="50" height="50" relative="1" as="geometry">
            <mxPoint x="40" y="66" as="sourcePoint" />
            <mxPoint x="810" y="65.5" as="targetPoint" />
          </mxGeometry>
        </mxCell>
        <mxCell id="MJouJ_tBEHJUPLvAa8a3-11" value="" style="rounded=0;whiteSpace=wrap;html=1;fillColor=#CCCCCC;strokeColor=none;" vertex="1" parent="1">
          <mxGeometry x="80" y="45" width="680" height="40" as="geometry" />
        </mxCell>
        <mxCell id="MJouJ_tBEHJUPLvAa8a3-1" value="" style="endArrow=none;html=1;rounded=0;strokeColor=#030303;strokeWidth=2;" edge="1" parent="1">
          <mxGeometry width="50" height="50" relative="1" as="geometry">
            <mxPoint x="80" y="11" as="sourcePoint" />
            <mxPoint x="760" y="11" as="targetPoint" />
          </mxGeometry>
        </mxCell>
        <mxCell id="MJouJ_tBEHJUPLvAa8a3-2" value="" style="endArrow=none;html=1;rounded=0;strokeColor=#030303;strokeWidth=2;" edge="1" parent="1">
          <mxGeometry width="50" height="50" relative="1" as="geometry">
            <mxPoint x="80" y="119" as="sourcePoint" />
            <mxPoint x="760" y="119" as="targetPoint" />
          </mxGeometry>
        </mxCell>
        <mxCell id="MJouJ_tBEHJUPLvAa8a3-5" value="Nawada" style="text;html=1;strokeColor=none;fillColor=none;align=center;verticalAlign=middle;whiteSpace=wrap;rounded=0;fontStyle=0" vertex="1" parent="1">
          <mxGeometry x="50" y="45" width="60" height="30" as="geometry" />
        </mxCell>
        <mxCell id="MJouJ_tBEHJUPLvAa8a3-6" value="Banaso" style="text;html=1;strokeColor=none;fillColor=none;align=center;verticalAlign=middle;whiteSpace=wrap;rounded=0;fontStyle=0" vertex="1" parent="1">
          <mxGeometry x="750" y="45" width="50" height="30" as="geometry" />
        </mxCell>
        <mxCell id="MJouJ_tBEHJUPLvAa8a3-7" style="edgeStyle=orthogonalEdgeStyle;rounded=0;orthogonalLoop=1;jettySize=auto;html=1;exitX=0.5;exitY=1;exitDx=0;exitDy=0;" edge="1" parent="1" source="MJouJ_tBEHJUPLvAa8a3-6" target="MJouJ_tBEHJUPLvAa8a3-6">
          <mxGeometry relative="1" as="geometry" />
        </mxCell>
        <mxCell id="MJouJ_tBEHJUPLvAa8a3-10" value="ROAD" style="text;html=1;align=center;verticalAlign=middle;whiteSpace=wrap;rounded=0;fillColor=none;strokeColor=none;" vertex="1" parent="1">
          <mxGeometry x="352" y="25" width="60" height="30" as="geometry" />
        </mxCell>
        <mxCell id="MJouJ_tBEHJUPLvAa8a3-12" style="edgeStyle=orthogonalEdgeStyle;rounded=0;orthogonalLoop=1;jettySize=auto;html=1;exitX=0.5;exitY=1;exitDx=0;exitDy=0;" edge="1" parent="1" source="MJouJ_tBEHJUPLvAa8a3-11" target="MJouJ_tBEHJUPLvAa8a3-11">
          <mxGeometry relative="1" as="geometry" />
        </mxCell>
        <mxCell id="MJouJ_tBEHJUPLvAa8a3-15" value="" style="endArrow=classic;startArrow=classic;html=1;rounded=0;" edge="1" parent="1" target="MJouJ_tBEHJUPLvAa8a3-11">
          <mxGeometry width="50" height="50" relative="1" as="geometry">
            <mxPoint x="80" y="64.5" as="sourcePoint" />
            <mxPoint x="460" y="64.5" as="targetPoint" />
          </mxGeometry>
        </mxCell>
        <mxCell id="MJouJ_tBEHJUPLvAa8a3-19" value="" style="endArrow=classic;html=1;rounded=0;startArrow=classic;startFill=1;dashed=1;" edge="1" parent="1">
          <mxGeometry relative="1" as="geometry">
            <mxPoint x="250" y="65" as="sourcePoint" />
            <mxPoint x="250" y="120" as="targetPoint" />
          </mxGeometry>
        </mxCell>
        <mxCell id="MJouJ_tBEHJUPLvAa8a3-20" value="40.0 Feet" style="edgeLabel;resizable=0;html=1;align=center;verticalAlign=middle;" connectable="0" vertex="1" parent="MJouJ_tBEHJUPLvAa8a3-19">
          <mxGeometry relative="1" as="geometry" />
        </mxCell>
        <mxCell id="MJouJ_tBEHJUPLvAa8a3-24" value="" style="endArrow=none;html=1;rounded=0;strokeWidth=2;" edge="1" parent="1">
          <mxGeometry width="50" height="50" relative="1" as="geometry">
            <mxPoint x="160" y="800" as="sourcePoint" />
            <mxPoint x="162" y="120" as="targetPoint" />
          </mxGeometry>
        </mxCell>
        <mxCell id="MJouJ_tBEHJUPLvAa8a3-25" value="" style="endArrow=none;html=1;rounded=0;strokeWidth=2;" edge="1" parent="1">
          <mxGeometry width="50" height="50" relative="1" as="geometry">
            <mxPoint x="680" y="800" as="sourcePoint" />
            <mxPoint x="680" y="120" as="targetPoint" />
          </mxGeometry>
        </mxCell>
      </root>
    </mxGraphModel>
  </diagram>
</mxfile>
